<svg id="Layer_1" data-name="Layer 1" xmlns="http://www.w3.org/2000/svg" xmlns:xlink="http://www.w3.org/1999/xlink" viewBox="0 0 1363.1 785.81"><defs><clipPath id="clip-path" transform="translate(0 -27.68)"><rect x="1291.07" y="468.97" width="22.6" height="22.6" fill="none"/></clipPath></defs><title>Huzaifa-Aseel (Resume)</title><text transform="translate(22.68 20.32)" font-size="24" font-family="Ubuntu-Regular, Ubuntu">Huzaifa Aseel</text><text transform="translate(22.68 38.77)" font-size="12" fill="#313c4e" font-family="Ubuntu-Regular, Ubuntu">Software Engineer | Full Stack .Net Developer</text><text transform="translate(22.68 55.2)" font-size="9" font-family="Ubuntu-Regular, Ubuntu">BE - Informatics Engineer, Interested in programming, mathematical and physical thinking, professional experience in Software<tspan x="0" y="10.8">Development, Passion for all dotnet stuf, my main language is C#, Web Developer, Desktop Developer, and I look forward to building</tspan><tspan x="0" y="21.6">More secure, robust and resilient software.</tspan></text><rect y="88.31" width="595.28" height="82.44" fill="#313c4e"/><text transform="translate(39.68 102.48)" font-size="9" fill="#fff" font-family="Ubuntu-Regular, Ubuntu">botchey.mha@hotmail.com</text><path d="M28.56,129.12a.93.93,0,0,1-.66-.27l-5.23-5.2v7.25a.93.93,0,0,0,.84.92l3-3a.31.31,0,0,1,.44.44l-2.54,2.54h8.36l-2.54-2.54a.31.31,0,0,1,.44-.44l3,3a.93.93,0,0,0,.84-.92v-7.25l-5.22,5.2a.93.93,0,0,1-.65.27" transform="translate(0 -27.68)" fill="#fff"/><path d="M28.78,128.41,34.25,123a.93.93,0,0,0-.74-.37h-9.9a.92.92,0,0,0-.74.37l5.47,5.45a.31.31,0,0,0,.44,0" transform="translate(0 -27.68)" fill="#fff"/><text transform="translate(39.68 122.72)" font-size="9" fill="#fff" font-family="Ubuntu-Regular, Ubuntu">Abu Dhabi, UAE</text><path d="M28.56,143.94a1,1,0,1,0,1,1,1,1,0,0,0-1-1" transform="translate(0 -27.68)" fill="#fff"/><path d="M28.56,146.51a1.58,1.58,0,1,1,1.64-1.58,1.61,1.61,0,0,1-1.64,1.58m0-4.66a3,3,0,0,0-3.1,3c0,2.54,1,6.23,2.63,8a.63.63,0,0,0,.92,0c1.65-1.78,2.63-5.47,2.63-8a3,3,0,0,0-3.09-3" transform="translate(0 -27.68)" fill="#fff"/><text transform="translate(314.34 102.45)" font-size="9" fill="#fff" font-family="Ubuntu-Regular, Ubuntu">github.com/MhozaifaA</text><text transform="translate(297.64 102.45) scale(0.92 1)" opacity="0" font-size="9" fill="#231f20" font-family="Ubuntu-Regular, Ubuntu">http://github.com/MhozaifaA</text><path d="M303.21,121.77a5.57,5.57,0,0,0-1.76,10.86c.28.05.38-.12.38-.27s0-.48,0-.95c-1.55.34-1.88-.75-1.88-.75a1.48,1.48,0,0,0-.62-.82c-.51-.35,0-.34,0-.34a1.17,1.17,0,0,1,.85.57,1.19,1.19,0,0,0,1.62.46,1.19,1.19,0,0,1,.35-.74,2.47,2.47,0,0,1-2.54-2.75,2.15,2.15,0,0,1,.57-1.49,2,2,0,0,1,.05-1.47s.47-.15,1.53.57a5.28,5.28,0,0,1,2.79,0c1.06-.72,1.53-.57,1.53-.57a2,2,0,0,1,.06,1.47,2.15,2.15,0,0,1,.57,1.49,2.46,2.46,0,0,1-2.54,2.75,1.33,1.33,0,0,1,.38,1c0,.74,0,1.35,0,1.53s.1.32.38.27a5.57,5.57,0,0,0-1.77-10.86" transform="translate(0 -27.68)" fill="#fff" fill-rule="evenodd"/><text transform="translate(40.29 142.99)" font-size="9" fill="#fff" font-family="Ubuntu-Regular, Ubuntu">+971 589017430</text><path d="M30.09,164.32H28.23a.31.31,0,0,1,0-.62h1.86a.33.33,0,0,1,.29.15.4.4,0,0,1,0,.32.33.33,0,0,1-.29.15m-.92,8a.93.93,0,1,1,.92-.93.93.93,0,0,1-.92.93m2.77-10.52H26.38a.93.93,0,0,0-.92.93v9.9a.93.93,0,0,0,.92.93h5.56a.93.93,0,0,0,.94-.93v-9.9a.93.93,0,0,0-.94-.93" transform="translate(0 -27.68)" fill="#fff"/><path d="M304.23,167.74a3.14,3.14,0,1,1-3.15-3.16,3.15,3.15,0,0,1,3.15,3.16" transform="translate(0 -27.68)" fill="#fff"/><path d="M307.68,167.74c0,1.65-.7,3-1.57,3s-1.58-1.33-1.58-3,.71-3,1.58-3,1.57,1.33,1.57,3" transform="translate(0 -27.68)" fill="#fff"/><path d="M309.09,167.74c0,1.47-.25,2.67-.56,2.67s-.55-1.19-.55-2.67.25-2.67.55-2.67.56,1.19.56,2.67" transform="translate(0 -27.68)" fill="#fff"/><text transform="translate(314.64 142.99)" font-size="9" fill="#fff" font-family="Ubuntu-Regular, Ubuntu">medium.com/@botchey.mha</text><text transform="translate(297.64 142.99) scale(0.94 1)" opacity="0" font-size="9" fill="#231f20" font-family="Ubuntu-Regular, Ubuntu">http://medium.com/@botchey.mha</text><text transform="translate(314.64 162.9)" font-size="9" fill="#fff" font-family="Ubuntu-Regular, Ubuntu">stackoverfow.com/users/14428181/MhozaifaA</text><path d="M303.31,192.91h4.12c.06,0,.1,0,.1-.08q0-1.8,0-3.6c0-.06,0-.08-.08-.08h-.72c-.13,0-.13,0-.13.13q0,1.28,0,2.56c0,.12,0,.12-.12.12h-6.33c-.09,0-.12,0-.12-.12,0-.87,0-1.73,0-2.6,0-.07,0-.1-.09-.1h-.72c-.1,0-.12,0-.12.12q0,1.76,0,3.52c0,.09,0,.12.12.12Zm2.52-3.94c0-.06,0-.05-.07-.06l-2.61-.55-1.78-.37c-.09,0-.13,0-.15.09s-.09.45-.14.68,0,.13.1.16l3.28.68,1.11.23s.07,0,.08,0Zm-3.76-3.12s0,0,0,0l-.34.74c0,.05,0,.07,0,.09l.46.21,3.64,1.7c.06,0,.09,0,.12,0,.1-.23.21-.46.32-.69,0-.06,0-.09,0-.12l-4.09-1.92Zm3.09-3.45,0,0-.66.49s0,0,0,.08l.22.3,2.49,3.35c0,.05.06.07.12,0l.63-.47s0-.05,0-.1l-.36-.48-2.34-3.15S305.2,182.41,305.16,182.39Zm1.88,4.49-.06,0-.46-.38-3-2.52s-.07,0-.11,0l-.48.58c-.05.06-.05.09,0,.14l3.48,2.89s.07,0,.1,0l.5-.61ZM303.3,191h2.26c.07,0,.09,0,.09-.09q0-.38,0-.76c0-.07,0-.09-.09-.09H301c-.07,0-.1,0-.1.09q0,.37,0,.74c0,.08,0,.11.1.11Z" transform="translate(0 -27.68)" fill="#fff"/><path d="M303.31,192.91h-4.1c-.1,0-.12,0-.12-.12q0-1.76,0-3.52c0-.1,0-.12.12-.12h.72c.08,0,.09,0,.09.1,0,.87,0,1.73,0,2.6,0,.1,0,.12.12.12h6.33c.12,0,.12,0,.12-.12q0-1.28,0-2.56c0-.13,0-.13.13-.13h.72c.06,0,.08,0,.08.08q0,1.8,0,3.6c0,.08,0,.08-.1.08h-4.12Z" transform="translate(0 -27.68)" fill="#fff"/><path d="M305.83,189l-.17.82c0,.06,0,0-.08,0l-1.11-.23-3.28-.68c-.13,0-.13,0-.1-.16s.1-.45.14-.68.06-.11.15-.09l1.78.37,2.61.55S305.85,188.91,305.83,189Z" transform="translate(0 -27.68)" fill="#fff"/><path d="M302.07,185.85l.06,0,4.09,1.92c.07,0,.07.06,0,.12-.11.23-.22.46-.32.69,0,.07-.06.07-.12,0l-3.64-1.7-.46-.21s-.06,0,0-.09l.34-.74S302,185.84,302.07,185.85Z" transform="translate(0 -27.68)" fill="#fff"/><path d="M305.16,182.39s0,0,.07.07l2.34,3.15.36.48s0,.07,0,.1l-.63.47c-.06,0-.08,0-.12,0l-2.49-3.35-.22-.3s0-.05,0-.08l.66-.49Z" transform="translate(0 -27.68)" fill="#fff"/><path d="M307,186.89l0,.06-.5.61s-.06,0-.1,0l-3.48-2.89c-.06-.05-.06-.08,0-.14l.48-.58c0-.05.06,0,.11,0l3,2.52.46.38Z" transform="translate(0 -27.68)" fill="#fff"/><path d="M303.3,191h-2.24c-.08,0-.11,0-.1-.11q0-.37,0-.74c0-.08,0-.09.1-.09h4.51c.07,0,.09,0,.09.09q0,.38,0,.76c0,.07,0,.09-.09.09Z" transform="translate(0 -27.68)" fill="#fff"/><text transform="translate(298.5 163.35) scale(0.93 1)" opacity="0" font-size="9" fill="#231f20" font-family="Ubuntu-Regular, Ubuntu">https://stackoverfow.com/users/14428181/MhozaifaA</text><text transform="translate(314.64 122.72)" font-size="9" fill="#fff" font-family="Ubuntu-Regular, Ubuntu">nuget.org/profles/MHuzaifaA</text><path d="M298.13,143s0-.07,0-.1a.9.9,0,0,1,.92-.68.89.89,0,1,1-.93,1.07s0-.06,0-.08Z" transform="translate(0 -27.68)" fill="#fff"/><path d="M304.54,152.68c-.45,0-1,0-1.58,0a2.69,2.69,0,0,1-2.32-1.6,2.42,2.42,0,0,1-.25-1.07c0-1,0-2.09,0-3.14a2.75,2.75,0,0,1,2.34-2.67,2.8,2.8,0,0,1,.42,0h3a2.75,2.75,0,0,1,2.74,2.31,2.32,2.32,0,0,1,0,.39c0,1.05,0,2.1,0,3.15a2.73,2.73,0,0,1-1.76,2.48,2.94,2.94,0,0,1-1.06.19Zm-.27-2.7a1.8,1.8,0,1,0,1.8-1.8A1.8,1.8,0,0,0,304.27,150Zm-2.91-3.44a1.13,1.13,0,1,0,1.14-1.13A1.13,1.13,0,0,0,301.36,146.53Z" transform="translate(0 -27.68)" fill="#fff"/><text transform="translate(297.64 122.72) scale(0.93 1)" opacity="0" font-size="9" fill="#231f20" font-family="Ubuntu-Regular, Ubuntu">http://nuget.org/profles/MHuzaifaA</text><text transform="translate(39.68 162.9)" font-size="9" fill="#fff" font-family="Ubuntu-Regular, Ubuntu">linkedin.com/in/mohamad-huzaifa-aseel</text><path d="M32.27,191.38H30.71v-2.45c0-.58,0-1.33-.81-1.33s-.94.64-.94,1.29v2.49H27.39v-5h1.5V187h0a1.64,1.64,0,0,1,1.48-.81c1.58,0,1.88,1,1.88,2.4Zm-6.64-5.72a.91.91,0,1,1,.91-.91.91.91,0,0,1-.91.91m.78,5.72H24.84v-5h1.57Zm6.64-9h-9a.78.78,0,0,0-.77.77v9a.78.78,0,0,0,.77.77h9a.77.77,0,0,0,.77-.77v-9a.77.77,0,0,0-.77-.77" transform="translate(0 -27.68)" fill="#fff"/><text transform="translate(22.68 162.9) scale(0.95 1)" opacity="0" font-size="9" fill="#231f20" font-family="Ubuntu-Regular, Ubuntu">http://linkedin.com/in/mohamad-huzaifa-aseel</text><text transform="translate(763.63 12.48)" font-size="14" fill="#313c4e" font-family="Ubuntu-Bold, Ubuntu" font-weight="700">PROFICIENT SKILLS</text><text transform="translate(22.68 194.72)" font-size="14" fill="#313c4e" font-family="Ubuntu-Bold, Ubuntu" font-weight="700">WORK EXPERIENCE</text><text transform="translate(763.63 162.7)" font-size="14" fill="#313c4e" font-family="Ubuntu-Bold, Ubuntu" font-weight="700">EDUCATION</text><rect y="331.72" width="11.88" height="0.91" fill="#313c4e"/><text transform="translate(22.68 335.93)" font-size="12" font-family="Ubuntu-Bold, Ubuntu" font-weight="700">Senior .Net Developer</text><text transform="translate(22.68 349.94)" font-size="12" font-family="Ubuntu-Regular, Ubuntu">Smart Works</text><text transform="translate(22.68 362.43)" font-size="8" fill="#313c4e" font-family="Ubuntu-Italic, Ubuntu" font-style="italic">04/2022 - 10/2022</text><text transform="translate(241.32 362.43)" font-size="8" fill="#313c4e" font-family="Ubuntu-Italic, Ubuntu" font-style="italic">Abu Dahbi, UAE</text><text transform="translate(22.68 373.24)" font-size="8" fill="#7c7c7c" font-family="Ubuntu-Italic, Ubuntu" font-style="italic">Information Systems </text><text transform="translate(22.68 384.74)" font-size="8" fill="#313c4e" font-family="Ubuntu-Italic, Ubuntu" font-style="italic">Works</text><path d="M24.62,420.27a1.94,1.94,0,1,0,1.94,1.94,1.92,1.92,0,0,0-1.94-1.94m0,1a1,1,0,1,1-1,1,1,1,0,0,1,1-1" transform="translate(0 -27.68)" fill="#313c4e"/><text transform="translate(31.65 397.48)" font-size="9" font-family="Ubuntu-Regular, Ubuntu">Development on various governmental (UAE gov) projects,<tspan x="0" y="10.8">The Marriage and Tawtheeqat systems, the Ministry of Energy</tspan><tspan x="0" y="21.6">And Infrastructure(MLS), and Unifed Gate. </tspan></text><path d="M24.62,455.56a1.94,1.94,0,1,0,1.94,1.94,1.92,1.92,0,0,0-1.94-1.94m0,1a1,1,0,1,1-1,1,1,1,0,0,1,1-1" transform="translate(0 -27.68)" fill="#313c4e"/><text transform="translate(31.65 432.78)" font-size="9" font-family="Ubuntu-Regular, Ubuntu">Integration with many services, such as eDirham/ADIB, payment<tspan x="0" y="10.8">And delivery systems, customer pulse, similar to the standard</tspan><tspan x="0" y="21.6">Government services required.</tspan></text><rect y="214.7" width="11.88" height="0.91" fill="#313c4e"/><text transform="translate(22.68 218.91)" font-size="12" font-family="Ubuntu-Bold, Ubuntu" font-weight="700">Full Stack Developer</text><text transform="translate(22.68 232.91)" font-size="12" font-family="Ubuntu-Regular, Ubuntu">Department of Health Abu Dhabi</text><text transform="translate(22.68 245.41)" font-size="8" fill="#313c4e" font-family="Ubuntu-Italic, Ubuntu" font-style="italic">11/2022 - Present</text><text transform="translate(241.32 245.41)" font-size="8" fill="#313c4e" font-family="Ubuntu-Italic, Ubuntu" font-style="italic">Abu Dahbi, UAE</text><text transform="translate(22.68 256.22)" font-size="8" fill="#7c7c7c" font-family="Ubuntu-Italic, Ubuntu" font-style="italic">The regulator of the healthcare sector in the emirate of Abu Dhabi </text><text transform="translate(22.68 267.72)" font-size="8" fill="#313c4e" font-family="Ubuntu-Italic, Ubuntu" font-style="italic">Works</text><path d="M24.62,303.24a1.94,1.94,0,1,0,1.94,1.94,1.92,1.92,0,0,0-1.94-1.94m0,1a1,1,0,1,1-1,1,1,1,0,0,1,1-1" transform="translate(0 -27.68)" fill="#313c4e"/><text transform="translate(31.65 280.46)" font-size="9" font-family="Ubuntu-Regular, Ubuntu">Member of information management (IM) team. </text><path d="M24.62,317a1.94,1.94,0,1,0,1.94,1.94A1.92,1.92,0,0,0,24.62,317m0,1a1,1,0,1,1-1,1,1,1,0,0,1,1-1" transform="translate(0 -27.68)" fill="#313c4e"/><text transform="translate(31.65 294.19)" font-size="9" font-family="Ubuntu-Regular, Ubuntu">Data Visualization, build and develop software and web app,<tspan x="0" y="10.8">Design databases, EA Management, Governance, BI, Asp Core,</tspan><tspan x="0" y="21.6">Angular, Power Apps and Azure Devops. </tspan></text><rect y="473.26" width="11.88" height="0.91" fill="#313c4e"/><text transform="translate(22.68 477.47)" font-size="12" font-family="Ubuntu-Bold, Ubuntu" font-weight="700">Full Stack Software Developer</text><text transform="translate(22.68 491.47)" font-size="12" font-family="Ubuntu-Regular, Ubuntu">Winsoft Solutions - Nano Health Suite </text><text transform="translate(22.68 503.96)" font-size="8" fill="#313c4e" font-family="Ubuntu-Italic, Ubuntu" font-style="italic">01/2022 - 04/2022</text><text transform="translate(257.11 503.96)" font-size="8" fill="#313c4e" font-family="Ubuntu-Italic, Ubuntu" font-style="italic">Dubai, UAE</text><text transform="translate(22.68 514.77)" font-size="8" fill="#7c7c7c" font-family="Ubuntu-Italic, Ubuntu" font-style="italic">IHospitals and Health Care</text><text transform="translate(22.68 526.27)" font-size="8" fill="#313c4e" font-family="Ubuntu-Italic, Ubuntu" font-style="italic">Works</text><path d="M24.62,561.8a1.94,1.94,0,1,0,1.94,1.94,1.92,1.92,0,0,0-1.94-1.94m0,1a1,1,0,1,1-1,1,1,1,0,0,1,1-1" transform="translate(0 -27.68)" fill="#313c4e"/><text transform="translate(31.65 539.02)" font-size="9" font-family="Ubuntu-Regular, Ubuntu">ERP, PBM Project, Nano Medical, ICD-10 ,CPT.</text><path d="M24.62,577.09A1.94,1.94,0,1,0,26.56,579a1.92,1.92,0,0,0-1.94-1.94m0,1a1,1,0,1,1-1,1,1,1,0,0,1,1-1" transform="translate(0 -27.68)" fill="#313c4e"/><text transform="translate(31.65 554.31)" font-size="9" font-family="Ubuntu-Regular, Ubuntu">Develop and support new features, including dashboards,<tspan x="0" y="10.8">Doctors, health insurance companies, and more.</tspan></text><rect y="586.71" width="11.88" height="0.91" fill="#313c4e"/><text transform="translate(22.68 590.92)" font-size="12" font-family="Ubuntu-Bold, Ubuntu" font-weight="700">R&amp;D Engineer / Web Team Lead</text><text transform="translate(22.68 604.92)" font-size="12" font-family="Ubuntu-Regular, Ubuntu">Elkood</text><text transform="translate(22.68 617.42)" font-size="8" fill="#313c4e" font-family="Ubuntu-Italic, Ubuntu" font-style="italic">04/2021 - 01/2022</text><text transform="translate(250.8 615.42)" font-size="8" fill="#313c4e" font-family="Ubuntu-Italic, Ubuntu" font-style="italic">Aleppo, Syria</text><text transform="translate(22.68 628.23)" font-size="8" fill="#7c7c7c" font-family="Ubuntu-Italic, Ubuntu" font-style="italic">Technical Solutions</text><text transform="translate(22.68 639.73)" font-size="8" fill="#313c4e" font-family="Ubuntu-Italic, Ubuntu" font-style="italic">Achievements</text><path d="M24.62,675.25a1.94,1.94,0,1,0,1.94,1.94,1.92,1.92,0,0,0-1.94-1.94m0,1a1,1,0,1,1-1,1,1,1,0,0,1,1-1" transform="translate(0 -27.68)" fill="#313c4e"/><text transform="translate(31.65 652.47)" font-size="9" font-family="Ubuntu-Regular, Ubuntu">Design and build Elkood.Web Structures and libs,<tspan x="0" y="10.8">Programmer Architect (Microsoft .Net).</tspan></text><path d="M24.62,701a1.94,1.94,0,1,0,1.94,1.94A1.92,1.92,0,0,0,24.62,701m0,1a1,1,0,1,1-1,1,1,1,0,0,1,1-1" transform="translate(0 -27.68)" fill="#313c4e"/><text transform="translate(31.65 678.21)" font-size="9" font-family="Ubuntu-Regular, Ubuntu">Head of web development department.</text><path d="M24.62,717a1.94,1.94,0,1,0,1.94,1.94A1.92,1.92,0,0,0,24.62,717m0,1a1,1,0,1,1-1,1,1,1,0,0,1,1-1" transform="translate(0 -27.68)" fill="#313c4e"/><text transform="translate(31.65 694.22)" font-size="9" font-family="Ubuntu-Regular, Ubuntu">Follow-up and control of projects from the technical and internal<tspan x="0" y="10.8">Aspects of the code, supervising the work team follow Scrum</tspan><tspan x="0" y="21.6">Agile, coordinating with the rest of the departments</tspan><tspan x="0" y="32.4">(Mobile And UI &amp; UX) and listening to the requirements related</tspan><tspan x="0" y="43.2">To the new features that must be submitted to the architectural</tspan><tspan x="0" y="54">structure.</tspan></text><path d="M24.62,785.29a1.94,1.94,0,1,0,1.94,1.94,1.92,1.92,0,0,0-1.94-1.94m0,1a1,1,0,1,1-1,1,1,1,0,0,1,1-1" transform="translate(0 -27.68)" fill="#313c4e"/><text transform="translate(31.65 762.51)" font-size="9" font-family="Ubuntu-Regular, Ubuntu">Entering the company’s libs and working on research and<tspan x="0" y="10.8">Development of the old structure and choosing the</tspan><tspan x="0" y="21.6">Technological decisions used in the projects (ERP, CRM).</tspan></text><rect x="297.64" y="363.09" width="11.88" height="0.91" fill="#313c4e"/><text transform="translate(320.31 367.3)" font-size="12" font-family="Ubuntu-Bold, Ubuntu" font-weight="700">Vue js Applications</text><text transform="translate(320.31 381.3)" font-size="12" font-family="Ubuntu-Regular, Ubuntu">Beetronix</text><text transform="translate(320.31 393.79)" font-size="8" fill="#313c4e" font-family="Ubuntu-Italic, Ubuntu" font-style="italic">02/2021 - 04/2021</text><text transform="translate(548.44 391.79)" font-size="8" fill="#313c4e" font-family="Ubuntu-Italic, Ubuntu" font-style="italic">Aleppo, Syria</text><text transform="translate(320.31 404.6)" font-size="8" fill="#7c7c7c" font-family="Ubuntu-Italic, Ubuntu" font-style="italic">Technical Solutions and Electronics Co.</text><text transform="translate(320.31 416.1)" font-size="8" fill="#313c4e" font-family="Ubuntu-Italic, Ubuntu" font-style="italic">Tasks</text><path d="M322.26,451.63a1.94,1.94,0,1,0,1.94,1.94,1.92,1.92,0,0,0-1.94-1.94m0,1a1,1,0,1,1-1,1,1,1,0,0,1,1-1" transform="translate(0 -27.68)" fill="#313c4e"/><text transform="translate(329.29 428.85)" font-size="9" font-family="Ubuntu-Regular, Ubuntu">Study the accounting system according to the Saudi and Iraqi<tspan x="0" y="10.8">System, to apply it to the HR and accounting projects.</tspan></text><path d="M322.26,477.37a1.94,1.94,0,1,0,1.94,1.94,1.92,1.92,0,0,0-1.94-1.94m0,1a1,1,0,1,1-1,1,1,1,0,0,1,1-1" transform="translate(0 -27.68)" fill="#313c4e"/><text transform="translate(329.29 454.59)" font-size="9" font-family="Ubuntu-Regular, Ubuntu">Js Developer and Front end, build and design UI components<tspan x="0" y="10.8">Under beeComp with Vue Framework.</tspan></text><rect x="297.64" y="487.31" width="11.88" height="0.91" fill="#313c4e"/><text transform="translate(320.31 491.52)" font-size="12" font-family="Ubuntu-Bold, Ubuntu" font-weight="700">Backend/FullStack Developer</text><text transform="translate(320.31 505.53)" font-size="12" font-family="Ubuntu-Regular, Ubuntu">Craft Lab</text><text transform="translate(320.31 518.02)" font-size="8" fill="#313c4e" font-family="Ubuntu-Italic, Ubuntu" font-style="italic">09/2020 - 11/2020</text><text transform="translate(548.44 516.02)" font-size="8" fill="#313c4e" font-family="Ubuntu-Italic, Ubuntu" font-style="italic">Aleppo, Syria</text><text transform="translate(320.31 528.83)" font-size="8" fill="#7c7c7c" font-family="Ubuntu-Italic, Ubuntu" font-style="italic">Information Technology Company </text><text transform="translate(320.31 540.33)" font-size="8" fill="#313c4e" font-family="Ubuntu-Italic, Ubuntu" font-style="italic">Tasks</text><path d="M322.26,575.86a1.94,1.94,0,1,0,1.94,1.94,1.92,1.92,0,0,0-1.94-1.94m0,1a1,1,0,1,1-1,1,1,1,0,0,1,1-1" transform="translate(0 -27.68)" fill="#313c4e"/><text transform="translate(329.29 553.08)" font-size="9" font-family="Ubuntu-Regular, Ubuntu">AspNetCore, JQuery, BAP, ADT, Institute system building.</text><path d="M322.26,590.59a1.94,1.94,0,1,0,1.94,1.94,1.92,1.92,0,0,0-1.94-1.94m0,1a1,1,0,1,1-1,1,1,1,0,0,1,1-1" transform="translate(0 -27.68)" fill="#313c4e"/><text transform="translate(329.29 567.81)" font-size="9" font-family="Ubuntu-Regular, Ubuntu">Social Medical Platform(Health in Touch), Build dynamic<tspan x="0" y="10.8">Calendar.</tspan></text><rect x="297.64" y="598.77" width="11.88" height="0.91" fill="#313c4e"/><text transform="translate(320.31 602.98)" font-size="12" font-family="Ubuntu-Bold, Ubuntu" font-weight="700">Web / Desktop Development Team Lead</text><text transform="translate(320.31 616.99)" font-size="12" font-family="Ubuntu-Regular, Ubuntu">Elkood</text><text transform="translate(320.31 629.48)" font-size="8" fill="#313c4e" font-family="Ubuntu-Italic, Ubuntu" font-style="italic">04/2019 - 08/2020</text><text transform="translate(548.44 627.48)" font-size="8" fill="#313c4e" font-family="Ubuntu-Italic, Ubuntu" font-style="italic">Aleppo, Syria</text><text transform="translate(320.31 640.29)" font-size="8" fill="#7c7c7c" font-family="Ubuntu-Italic, Ubuntu" font-style="italic">Technical Solutions</text><text transform="translate(320.31 651.79)" font-size="8" fill="#313c4e" font-family="Ubuntu-Italic, Ubuntu" font-style="italic">Achievements</text><path d="M322.26,687.32a1.94,1.94,0,1,0,1.94,1.94,1.92,1.92,0,0,0-1.94-1.94m0,1a1,1,0,1,1-1,1,1,1,0,0,1,1-1" transform="translate(0 -27.68)" fill="#313c4e"/><text transform="translate(329.29 664.53)" font-size="9" font-family="Ubuntu-Regular, Ubuntu">Web Development Team Lead. Managing the team,<tspan x="0" y="10.8">Dealing With upcoming/(customer support) projects,</tspan><tspan x="0" y="21.6">Communicating with CEO, laying the foundations of web science</tspan><tspan x="0" y="32.4">Within the department, coding, building the internal structure</tspan><tspan x="0" y="43.2">Of projects, code review, UnitTest and training the team to deal</tspan><tspan x="0" y="54">With new technique.</tspan></text><path d="M322.26,758.67a1.94,1.94,0,1,0,1.94,1.94,1.92,1.92,0,0,0-1.94-1.94m0,1a1,1,0,1,1-1,1,1,1,0,0,1,1-1" transform="translate(0 -27.68)" fill="#313c4e"/><text transform="translate(329.29 735.89)" font-size="9" font-family="Ubuntu-Regular, Ubuntu">Desktop Development Team Lead.<tspan x="0" y="10.8">Systems Analyst &amp; DB, (HR, Accounting, Real estates,</tspan><tspan x="0" y="21.6">Reporting) Systems with powerful GUI and UX.</tspan></text><text transform="translate(562.62 243.41)" font-size="8" fill="#313c4e" font-family="Ubuntu-Italic, Ubuntu" font-style="italic">Germany</text><rect x="297.64" y="214.7" width="11.88" height="0.91" fill="#313c4e"/><text transform="translate(320.32 218.91)" font-size="12" font-family="Ubuntu-Bold, Ubuntu" font-weight="700">Desktop Developer i2vpn/i2ptv</text><text transform="translate(320.32 232.91)" font-size="12" font-family="Ubuntu-Regular, Ubuntu">i2tek</text><text transform="translate(320.32 245.41)" font-size="8" fill="#313c4e" font-family="Ubuntu-Italic, Ubuntu" font-style="italic">02/2021 - 01/2022</text><text transform="translate(320.32 256.22)" font-size="8" fill="#7c7c7c" font-family="Ubuntu-Italic, Ubuntu" font-style="italic">Rasirs Tech (i2tek.com)</text><text transform="translate(320.32 267.72)" font-size="8" fill="#313c4e" font-family="Ubuntu-Italic, Ubuntu" font-style="italic">Works</text><path d="M322.26,303.24a1.94,1.94,0,1,0,1.94,1.94,1.92,1.92,0,0,0-1.94-1.94m0,1a1,1,0,1,1-1,1,1,1,0,0,1,1-1" transform="translate(0 -27.68)" fill="#313c4e"/><text transform="translate(329.29 280.46)" font-size="9" font-family="Ubuntu-Regular, Ubuntu">DotNet Desktop Application Expert.</text><path d="M322.26,318.56a1.94,1.94,0,1,0,1.94,1.94,1.92,1.92,0,0,0-1.94-1.94m0,1a1,1,0,1,1-1,1,1,1,0,0,1,1-1" transform="translate(0 -27.68)" fill="#313c4e"/><text transform="translate(329.29 295.78)" font-size="9" font-family="Ubuntu-Regular, Ubuntu">Full i2VPN ( VPN proxy server ) app development on<tspan x="0" y="10.8">Windows, under openvpn protocol.</tspan></text><path d="M322.66,343.47a1.94,1.94,0,1,0,1.94,1.94,1.92,1.92,0,0,0-1.94-1.94m0,1a1,1,0,1,1-1,1,1,1,0,0,1,1-1" transform="translate(0 -27.68)" fill="#313c4e"/><text transform="translate(329.69 320.68)" font-size="9" font-family="Ubuntu-Regular, Ubuntu">C#, WPF, Windows Service, Background Service, WCF,<tspan x="0" y="10.8">NamedPipe, TCP, Socket, Task Schedule, innosetup, wix , nsis,</tspan><tspan x="0" y="21.6">Killswitch, netsh, Firewall, Splitunnel, MVVM.</tspan></text><rect x="763.63" y="24.89" width="33.41" height="12.65" rx="2.44" ry="2.44" fill="#989da6"/><text transform="translate(766.88 33.65)" font-size="7" fill="#fff" font-family="MyriadPro-Regular, Myriad Pro">.Net Core</text><rect x="801.06" y="24.89" width="58.59" height="12.65" rx="2.44" ry="2.44" fill="#989da6"/><text transform="translate(804.79 33.65)" font-size="7" fill="#fff" font-family="Ubuntu-Regular, Ubuntu">.Net Framework</text><rect x="863.68" y="24.89" width="47.33" height="12.65" rx="2.44" ry="2.44" fill="#989da6"/><text transform="translate(866.28 33.65)" font-size="7" fill="#fff" font-family="Ubuntu-Regular, Ubuntu">Asp.Net Core</text><rect x="915.03" y="24.89" width="22.25" height="12.65" rx="2.44" ry="2.44" fill="#989da6"/><text transform="translate(918.9 33.65)" font-size="7" fill="#fff" font-family="Ubuntu-Regular, Ubuntu">WPF</text><rect x="941.3" y="24.89" width="57.77" height="12.65" rx="2.44" ry="2.44" fill="#989da6"/><text transform="translate(944.24 33.65)" font-size="7" fill="#fff" font-family="Ubuntu-Regular, Ubuntu">WindowsService</text><rect x="763.63" y="43.23" width="33.41" height="12.65" rx="2.44" ry="2.44" fill="#989da6"/><text transform="translate(767.21 52)" font-size="7" fill="#fff" font-family="Ubuntu-Regular, Ubuntu">Xamarin</text><rect x="801.06" y="43.23" width="54" height="12.65" rx="2.44" ry="2.44" fill="#989da6"/><text transform="translate(803.64 52)" font-size="7" fill="#fff" font-family="Ubuntu-Regular, Ubuntu">WindowsForms</text><rect x="846.61" y="61.5" width="33.41" height="12.65" rx="2.44" ry="2.44" fill="#989da6"/><text transform="translate(851.55 70.26)" font-size="7" fill="#fff" font-family="Ubuntu-Regular, Ubuntu">SignalR</text><rect x="906.94" y="43.23" width="64.66" height="12.65" rx="2.44" ry="2.44" fill="#989da6"/><text transform="translate(912.19 52)" font-size="7" fill="#fff" font-family="Ubuntu-Regular, Ubuntu">ADO/EF 6.x/Core</text><rect x="975.62" y="43.23" width="21.67" height="12.65" rx="2.44" ry="2.44" fill="#989da6"/><text transform="translate(980.06 52)" font-size="7" fill="#fff" font-family="Ubuntu-Regular, Ubuntu">SQL</text><rect x="1001.08" y="43.23" width="21.33" height="12.65" rx="2.44" ry="2.44" fill="#989da6"/><text transform="translate(1003.72 52)" font-size="7" fill="#fff" font-family="Ubuntu-Regular, Ubuntu">LINQ</text><rect x="763.63" y="61.5" width="37.44" height="12.65" rx="2.44" ry="2.44" fill="#989da6"/><text transform="translate(766.39 70.26)" font-size="7" fill="#fff" font-family="Ubuntu-Regular, Ubuntu">MongoDB</text><rect x="805.14" y="61.5" width="37.44" height="12.65" rx="2.44" ry="2.44" fill="#989da6"/><text transform="translate(806.79 70.26)" font-size="7" fill="#fff" font-family="Ubuntu-Regular, Ubuntu">Postgresql</text><rect x="1003.09" y="24.89" width="24.44" height="12.65" rx="2.44" ry="2.44" fill="#989da6"/><text transform="translate(1005.21 33.65)" font-size="7" fill="#fff" font-family="Ubuntu-Regular, Ubuntu">Blazor</text><rect x="884.04" y="61.5" width="19.65" height="12.65" rx="2.44" ry="2.44" fill="#989da6"/><text transform="translate(889.36 70.26)" font-size="7" fill="#fff" font-family="Ubuntu-Regular, Ubuntu">C#</text><rect x="916.09" y="79.92" width="57.65" height="12.65" rx="2.44" ry="2.44" fill="#989da6"/><text transform="translate(919.53 88.69)" font-size="7" fill="#fff" font-family="Ubuntu-Regular, Ubuntu">Design Patterns</text><rect x="907.72" y="61.5" width="43.17" height="12.65" rx="2.44" ry="2.44" fill="#989da6"/><text transform="translate(911.38 70.26)" font-size="7" fill="#fff" font-family="Ubuntu-Regular, Ubuntu">JavaScripts</text><rect x="954.91" y="61.5" width="25.67" height="12.65" rx="2.44" ry="2.44" fill="#989da6"/><text transform="translate(958.35 70.26)" font-size="7" fill="#fff" font-family="Ubuntu-Regular, Ubuntu">XAML</text><rect x="763.63" y="79.92" width="33.41" height="12.65" rx="2.44" ry="2.44" fill="#989da6"/><text transform="translate(767.84 88.69)" font-size="7" fill="#fff" font-family="Ubuntu-Regular, Ubuntu">Angular</text><rect x="801.07" y="79.92" width="33.41" height="12.65" rx="2.44" ry="2.44" fill="#989da6"/><text transform="translate(805.5 88.69)" font-size="7" fill="#fff" font-family="Ubuntu-Regular, Ubuntu">React js</text><rect x="977.76" y="79.92" width="64.31" height="12.65" rx="2.44" ry="2.44" fill="#989da6"/><text transform="translate(980.96 88.69)" font-size="7" fill="#fff" font-family="Ubuntu-Regular, Ubuntu">Code Architecture</text><rect x="870.66" y="79.92" width="41.41" height="12.65" rx="2.44" ry="2.44" fill="#989da6"/><text transform="translate(875.37 88.69)" font-size="7" fill="#fff" font-family="Ubuntu-Regular, Ubuntu">Bootstrap</text><rect x="859.08" y="43.23" width="43.84" height="12.65" rx="2.44" ry="2.44" fill="#989da6"/><text transform="translate(863.86 52)" font-size="7" fill="#fff" font-family="Ubuntu-Regular, Ubuntu">WebForms</text><rect x="984.6" y="61.5" width="29.25" height="12.65" rx="2.44" ry="2.44" fill="#989da6"/><text transform="translate(988.44 70.26)" font-size="7" fill="#fff" font-family="Ubuntu-Regular, Ubuntu">VB.net</text><rect x="924.21" y="98.27" width="39.52" height="12.65" rx="2.44" ry="2.44" fill="#989da6"/><text transform="translate(933.62 107.03)" font-size="7" fill="#fff" font-family="Ubuntu-Regular, Ubuntu">GitLab</text><rect x="967.75" y="98.27" width="47.13" height="12.65" rx="2.44" ry="2.44" fill="#989da6"/><text transform="translate(971.34 107.03)" font-size="7" fill="#fff" font-family="Ubuntu-Regular, Ubuntu">Amazon VPS</text><rect x="763.63" y="116.12" width="50.64" height="12.65" rx="2.44" ry="2.44" fill="#989da6"/><text transform="translate(765.94 124.88)" font-size="7" fill="#fff" font-family="Ubuntu-Regular, Ubuntu">VPN Protocols</text><rect x="818.27" y="116.12" width="24.18" height="12.65" rx="2.44" ry="2.44" fill="#989da6"/><text transform="translate(821.76 124.88)" font-size="7" fill="#fff" font-family="Ubuntu-Regular, Ubuntu">VMW</text><rect x="838.65" y="79.92" width="28" height="12.65" rx="2.44" ry="2.44" fill="#989da6"/><text transform="translate(843.13 88.69)" font-size="7" fill="#fff" font-family="Ubuntu-Regular, Ubuntu">Vue js</text><rect x="882.15" y="98.27" width="38.04" height="12.65" rx="2.44" ry="2.44" fill="#989da6"/><text transform="translate(889.98 107.03)" font-size="7" fill="#fff" font-family="Ubuntu-Regular, Ubuntu">GitHub</text><rect x="822.89" y="98.27" width="55.33" height="12.65" rx="2.44" ry="2.44" fill="#989da6"/><text transform="translate(827.91 107.03)" font-size="7" fill="#fff" font-family="Ubuntu-Regular, Ubuntu">Azure DevOps</text><rect x="763.63" y="98.27" width="55.33" height="12.65" rx="2.44" ry="2.44" fill="#989da6"/><text transform="translate(769.66 107.03)" font-size="7" fill="#fff" font-family="Ubuntu-Regular, Ubuntu">Microservices</text><rect x="947.93" y="116.4" width="39.52" height="12.65" rx="2.44" ry="2.44" fill="#989da6"/><text transform="translate(950.34 125.16)" font-size="7" fill="#fff" font-family="Ubuntu-Regular, Ubuntu">Photoshop</text><rect x="991.47" y="116.4" width="27.75" height="12.65" rx="2.44" ry="2.44" fill="#989da6"/><text transform="translate(995.72 125.16)" font-size="7" fill="#fff" font-family="Ubuntu-Regular, Ubuntu">Figma</text><rect x="905.87" y="116.4" width="38.04" height="12.65" rx="2.44" ry="2.44" fill="#989da6"/><text transform="translate(909.06 125.16)" font-size="7" fill="#fff" font-family="Ubuntu-Regular, Ubuntu">Illustrator</text><rect x="846.61" y="116.4" width="55.33" height="12.65" rx="2.44" ry="2.44" fill="#989da6"/><text transform="translate(850.43 125.16)" font-size="7" fill="#fff" font-family="Ubuntu-Regular, Ubuntu">Graphic Design</text><text transform="translate(763.63 394.86)" font-size="14" fill="#313c4e" font-family="Ubuntu-Bold, Ubuntu" font-weight="700">VOLUNTEER EXPERIENCE</text><text transform="translate(763.63 415.17)" font-size="12.11" font-family="Ubuntu-Bold, Ubuntu" font-weight="700">Technical Team Member</text><text transform="translate(763.63 429.17)" font-size="12" font-family="Ubuntu-Regular, Ubuntu">Blue Bits Team</text><text transform="translate(763.63 441.67)" font-size="8" fill="#313c4e" font-family="Ubuntu-Italic, Ubuntu" font-style="italic">10/2016 - 08/2021</text><text transform="translate(763.63 474.18)" font-size="14" fill="#313c4e" font-family="Ubuntu-Bold, Ubuntu" font-weight="700">LANGUAGES</text><text transform="translate(763.63 363.5)" font-size="8" fill="#7c7c7c" font-family="Ubuntu-Italic, Ubuntu" font-style="italic">Graduation Project - Grade 95%</text><text transform="translate(763.63 352.32)" font-size="10.06" font-family="Ubuntu-Regular, Ubuntu">Intelligent disease monitoring system using GIS</text><text transform="translate(763.63 183.01)" font-size="12.11" font-family="Ubuntu-Bold, Ubuntu" font-weight="700">Informatics Engineering</text><text transform="translate(763.63 197.01)" font-size="12" font-family="Ubuntu-Regular, Ubuntu">Aleppo University</text><text transform="translate(763.63 209.51)" font-size="8" fill="#313c4e" font-family="Ubuntu-Italic, Ubuntu" font-style="italic">10/2016 - 10/2021</text><text transform="translate(873.25 197.76)" font-size="8" fill="#313c4e" font-family="Ubuntu-Italic, Ubuntu" font-style="italic">Majoring Artifcial Intelligence</text><text transform="translate(763.63 227.56)" font-size="9" font-family="Ubuntu-Regular, Ubuntu">Programing</text><text transform="translate(763.63 250.44)" font-size="9" font-family="Ubuntu-Regular, Ubuntu">Mathematical</text><text transform="translate(824.07 227.56)" font-size="8" fill="#7c7c7c" font-family="Ubuntu-Regular, Ubuntu">C++,Java, C#, Assembly, Opcodes, Pascal, Delphi, Lisp, Prolog, Python, Matlab, Automation, Compilers Design, Algorithms, Parallel,<tspan x="0" y="9.6">Data Structure, Data Bases, Formal, Data Mining).</tspan></text><text transform="translate(824.07 250.11)" font-size="8" fill="#7c7c7c" font-family="Ubuntu-Regular, Ubuntu">Analysis, Calculus, Algebra, Discrete, Numerical, Probability, Statics, Simplex, Programing, Theory (Graph, Queuing Information)).</text><text transform="translate(763.63 264.89)" font-size="9" font-family="Ubuntu-Regular, Ubuntu">Electrical &amp;<tspan x="0" y="10.8">physical</tspan></text><text transform="translate(824.07 264.89)" font-size="8" fill="#7c7c7c" font-family="Ubuntu-Regular, Ubuntu">(Circuits, Electronics, Signals, Digital &amp; Analog, Gauss, Lenses). </text><text transform="translate(763.63 290.39)" font-size="9" font-family="Ubuntu-Regular, Ubuntu">Computer </text><text transform="translate(824.07 290.06)" font-size="8" fill="#7c7c7c" font-family="Ubuntu-Regular, Ubuntu">(Operating, Microprocessor, Microcontroller, PLC, Graphics, Vision, Architecture and Organization, Networks, Security).</text><text transform="translate(763.63 303.29)" font-size="9" font-family="Ubuntu-Regular, Ubuntu">System </text><text transform="translate(824.07 302.96)" font-size="8" fill="#7c7c7c" font-family="Ubuntu-Regular, Ubuntu">(Real Time, Logical, Operating, Expert, Digital, Programmable, Multimedia).</text><text transform="translate(763.63 315.96)" font-size="9" font-family="Ubuntu-Regular, Ubuntu">Management </text><text transform="translate(824.07 315.63)" font-size="8" fill="#7c7c7c" font-family="Ubuntu-Regular, Ubuntu">(PMP, Marketing, Production, Quality and Reliability, Modeling and Simulation).</text><text transform="translate(763.63 330.63)" font-size="9" font-family="Ubuntu-Regular, Ubuntu">AI </text><text transform="translate(824.07 330.3)" font-size="8" fill="#7c7c7c" font-family="Ubuntu-Regular, Ubuntu">(Concepts, Neural Networks, NLP, Expert, Logical, Search Engine, Robotics).</text><rect x="735.28" y="655.23" width="595.28" height="82.44" fill="#313c4e"/><text transform="translate(763.63 504.39)" font-size="8" fill="#313c4e" font-family="Ubuntu-Italic, Ubuntu" font-style="italic">Native</text><text transform="translate(763.63 491.86)" font-size="9" font-family="Ubuntu-Regular, Ubuntu">Arabic</text><text transform="translate(807.96 504.39)" font-size="8" fill="#313c4e" font-family="Ubuntu-Italic, Ubuntu" font-style="italic">professional</text><text transform="translate(807.96 491.86)" font-size="9" font-family="Ubuntu-Regular, Ubuntu">English</text><text transform="translate(1064.96 394.86)" font-size="14" fill="#313c4e" font-family="Ubuntu-Bold, Ubuntu" font-weight="700">Activities</text><text transform="translate(1064.96 415.17)" font-size="12.11" font-family="Ubuntu-Bold, Ubuntu" font-weight="700">Blogger Medium (Programming)</text><text transform="translate(1064.96 429.17)" font-size="12" font-family="Ubuntu-Regular, Ubuntu">Topics related to programmer architect</text><text transform="translate(1064.96 451.53)" font-size="12.11" font-family="Ubuntu-Bold, Ubuntu" font-weight="700">Software Libs (nuget)</text><text transform="translate(1064.96 465.54)" font-size="12" font-family="Ubuntu-Regular, Ubuntu">Meteors for perpetual projects</text><text transform="translate(1064.96 491.86)" font-size="12.11" font-family="Ubuntu-Bold, Ubuntu" font-weight="700">Fortify VPN (Win App)</text><text transform="translate(1064.96 505.86)" font-size="12" font-family="Ubuntu-Regular, Ubuntu">Belouni LLC, Develop Proxy VPN (2023-2024)</text><g clip-path="url(#clip-path)"><rect x="1291.07" y="441.28" width="22.6" height="22.6" fill="#5722d6"/><text transform="translate(1296.72 452.18)" font-size="8.71" fill="#fff" font-family="MyriadPro-Regular, Myriad Pro">Mr.</text><text transform="translate(1296.88 454.6)" font-size="3.22" fill="#fff" font-family="MyriadPro-Regular, Myriad Pro">Meteors</text><rect x="1297.06" y="461.19" width="0.27" height="2.69" fill="#fff"/><rect x="1298.02" y="461.19" width="0.27" height="2.69" fill="#fff"/><rect x="1299.01" y="461.19" width="0.27" height="2.69" fill="#fff"/><rect x="1305.76" y="461.19" width="0.27" height="2.69" fill="#fff"/><rect x="1301.47" y="462.86" width="0.27" height="1.02" fill="#fff"/><path d="M1304.34,491.73a.53.53,0,0,0,1.06,0,.52.52,0,0,0,0-.17h-1A.52.52,0,0,0,1304.34,491.73Z" transform="translate(0 -27.68)" fill="none"/><path d="M1300.33,491.2a.53.53,0,0,0-.5.37h1A.53.53,0,0,0,1300.33,491.2Z" transform="translate(0 -27.68)" fill="none"/><path d="M1303.12,492.26a.53.53,0,0,0,.53-.53.52.52,0,0,0,0-.17h-1a.52.52,0,0,0,0,.17A.53.53,0,0,0,1303.12,492.26Z" transform="translate(0 -27.68)" fill="none"/><path d="M1303.12,491.2a.53.53,0,0,0-.5.37h1A.53.53,0,0,0,1303.12,491.2Z" transform="translate(0 -27.68)" fill="none"/><path d="M1304.87,491.2a.53.53,0,0,0-.5.37h1A.53.53,0,0,0,1304.87,491.2Z" transform="translate(0 -27.68)" fill="none"/><path d="M1300.33,492.26a.53.53,0,0,0,.53-.53.52.52,0,0,0,0-.17h-1a.52.52,0,0,0,0,.17A.53.53,0,0,0,1300.33,492.26Z" transform="translate(0 -27.68)" fill="none"/><path d="M1304.87,491.2a.53.53,0,0,1,.5.37h.23a.75.75,0,0,0-1.46,0h.23A.53.53,0,0,1,1304.87,491.2Z" transform="translate(0 -27.68)" fill="#fff"/><path d="M1307.35,491.2a.53.53,0,0,1,.5.37h.23a.75.75,0,0,0-1.46,0h.23A.53.53,0,0,1,1307.35,491.2Z" transform="translate(0 -27.68)" fill="#fff"/><path d="M1303.12,491a.75.75,0,0,0-.73.58h.23a.53.53,0,0,1,1,0h.23A.75.75,0,0,0,1303.12,491Z" transform="translate(0 -27.68)" fill="#fff"/><path d="M1300.33,491a.75.75,0,0,0-.73.58h.23a.53.53,0,0,1,1,0h.23A.75.75,0,0,0,1300.33,491Z" transform="translate(0 -27.68)" fill="#fff"/><g opacity="0.2"><rect x="1242.05" y="434.41" width="2.99" height="29.57" fill="#fff"/><rect x="1252.59" y="434.41" width="2.99" height="29.57" fill="#fff"/><rect x="1263.44" y="434.41" width="2.99" height="29.57" fill="#fff"/><rect x="1337.59" y="434.41" width="2.99" height="29.57" fill="#fff"/><rect x="1290.44" y="452.84" width="2.99" height="11.15" fill="#fff"/><path d="M1322,493.49a5.83,5.83,0,0,0,11.66,0,5.76,5.76,0,0,0-.32-1.82h-11A5.76,5.76,0,0,0,1322,493.49Z" transform="translate(0 -27.68)" fill="none"/><path d="M1278,487.66a5.81,5.81,0,0,0-5.51,4h11A5.81,5.81,0,0,0,1278,487.66Z" transform="translate(0 -27.68)" fill="none"/><path d="M1308.58,499.32a5.83,5.83,0,0,0,5.83-5.83,5.76,5.76,0,0,0-.32-1.82h-11a5.76,5.76,0,0,0-.32,1.82A5.83,5.83,0,0,0,1308.58,499.32Z" transform="translate(0 -27.68)" fill="none"/><path d="M1308.58,487.66a5.81,5.81,0,0,0-5.51,4h11A5.81,5.81,0,0,0,1308.58,487.66Z" transform="translate(0 -27.68)" fill="none"/><path d="M1327.83,487.66a5.81,5.81,0,0,0-5.51,4h11A5.81,5.81,0,0,0,1327.83,487.66Z" transform="translate(0 -27.68)" fill="none"/><path d="M1278,499.32a5.83,5.83,0,0,0,5.83-5.83,5.76,5.76,0,0,0-.32-1.82h-11a5.76,5.76,0,0,0-.32,1.82A5.83,5.83,0,0,0,1278,499.32Z" transform="translate(0 -27.68)" fill="none"/><path d="M1327.83,487.66a5.81,5.81,0,0,1,5.51,4h2.52a8.23,8.23,0,0,0-16.05,0h2.52A5.81,5.81,0,0,1,1327.83,487.66Z" transform="translate(0 -27.68)" fill="#fff"/><path d="M1355.07,487.66a5.81,5.81,0,0,1,5.51,4h2.52a8.23,8.23,0,0,0-16.05,0h2.52A5.81,5.81,0,0,1,1355.07,487.66Z" transform="translate(0 -27.68)" fill="#fff"/><path d="M1308.58,485.25a8.23,8.23,0,0,0-8,6.42h2.52a5.79,5.79,0,0,1,11,0h2.52A8.23,8.23,0,0,0,1308.58,485.25Z" transform="translate(0 -27.68)" fill="#fff"/><path d="M1278,485.25a8.23,8.23,0,0,0-8,6.42h2.52a5.79,5.79,0,0,1,11,0H1286A8.23,8.23,0,0,0,1278,485.25Z" transform="translate(0 -27.68)" fill="#fff"/></g><rect x="1296.03" y="443.8" width="12.68" height="12.68" fill="none" stroke="#fff" stroke-miterlimit="10" stroke-width="0.18"/></g><text transform="translate(1288.88 472.18)" font-size="4.59" fill="#7c7c7c" font-family="Ubuntu-Italic, Ubuntu" font-style="italic">Un-Public yet</text></svg>